<svg width="400" height="157" viewBox="0 0 266 57" fill="none" xmlns="http://www.w3.org/2000/svg">
<path d="M64.82 45.06C54.82 45.06 47.04 38.06 47.04 29.06C47.04 20.06 54.85 12.96 64.82 12.96C74.79 12.96 82.6 20.05 82.6 29.06C82.6 38.07 74.78 45.06 64.82 45.06ZM64.82 19.4C58.49 19.4 53.5 23.63 53.5 29.03C53.5 34.43 58.5 38.59 64.82 38.59C71.14 38.59 76.13 34.42 76.13 29.03C76.13 23.64 71.13 19.4 64.82 19.4Z" fill="#C8202F"/>
<path d="M128.4 45.0601C126.665 45.0416 125.007 44.3351 123.792 43.0957C122.577 41.8564 121.904 40.1855 121.92 38.4501V25.13C121.811 23.5719 121.115 22.113 119.973 21.0477C118.831 19.9824 117.327 19.39 115.765 19.39C114.203 19.39 112.699 19.9824 111.557 21.0477C110.415 22.113 109.719 23.5719 109.61 25.13V45.0601C108.76 45.0614 107.919 44.8948 107.134 44.57C106.349 44.2452 105.636 43.7686 105.036 43.1674C104.435 42.5662 103.96 41.8523 103.636 41.0668C103.313 40.2813 103.147 39.4396 103.15 38.59V25.13C103.025 23.5794 102.321 22.1327 101.178 21.0779C100.034 20.023 98.5356 19.4372 96.98 19.4372C95.4244 19.4372 93.9258 20.023 92.7824 21.0779C91.6391 22.1327 90.9349 23.5794 90.81 25.13V38.52C90.8075 40.24 90.1286 41.89 88.9199 43.1136C87.7113 44.3373 86.0698 45.0364 84.35 45.0601V25.13C84.3747 23.5021 84.7201 21.8949 85.3664 20.4005C86.0126 18.9061 86.9471 17.5537 88.1164 16.4206C89.2856 15.2876 90.6668 14.3961 92.1808 13.7972C93.6948 13.1982 95.312 12.9036 96.94 12.93C98.7033 12.9061 100.452 13.2494 102.076 13.938C103.699 14.6267 105.162 15.6456 106.37 16.93C107.567 15.6532 109.016 14.6384 110.626 13.9499C112.235 13.2614 113.97 12.9142 115.72 12.93C117.354 12.8969 118.979 13.1863 120.501 13.7818C122.023 14.3773 123.412 15.2671 124.59 16.4002C125.768 17.5334 126.711 18.8878 127.364 20.3858C128.018 21.8837 128.37 23.4959 128.4 25.13V45.0601Z" fill="#C8202F"/>
<path d="M149.4 44.99C147.79 45.0088 146.184 44.8478 144.61 44.51C142.999 44.0454 141.634 42.9695 140.807 41.512C139.979 40.0545 139.754 38.3311 140.18 36.71C140.288 36.3169 140.425 35.9325 140.59 35.56V35.5C142.4 37.5 145.38 38.5 149.35 38.5C155.26 38.5 159.92 34.32 159.92 29.07C159.92 23.61 155.26 19.32 149.35 19.32C143.73 19.32 138.17 22.4 138.17 29.2V50.2C138.141 51.894 137.444 53.5078 136.23 54.6898C135.016 55.8718 133.384 56.526 131.69 56.51V29.22C131.69 19.8 139.11 12.87 149.35 12.87C153.791 12.8557 158.074 14.512 161.35 17.51C162.935 18.9926 164.197 20.7862 165.057 22.7787C165.918 24.7711 166.358 26.9197 166.35 29.09C166.43 37.98 158.97 44.99 149.4 44.99Z" fill="#C8202F"/>
<path d="M195.52 6.80003H181.69V45.06H181.39C179.717 45.0103 178.131 44.3032 176.976 43.0921C175.821 41.8809 175.19 40.2634 175.22 38.59V6.80003H161.35C159.668 6.78419 158.062 6.10301 156.881 4.90551C155.7 3.70801 155.042 2.09166 155.05 0.410034H201.91C201.907 2.10396 201.233 3.72774 200.035 4.92553C198.838 6.12331 197.214 6.79739 195.52 6.80003Z" fill="#C8202F"/>
<path d="M250.87 40.9999L247.44 33.62H224.49L221.09 41.2C219.48 44.2 215.23 45.15 211.96 45.15L230.68 4.14996C231.074 3.09561 231.772 2.18157 232.685 1.52311C233.598 0.864647 234.685 0.491232 235.81 0.449951C236.941 0.491907 238.034 0.864874 238.955 1.5226C239.876 2.18032 240.584 3.09387 240.99 4.14996L259.5 44.7C256.01 44.99 252.23 43.9499 250.87 40.9999ZM236.52 7.08995L227.34 27.27H244.68L235.44 7.00995L236.52 7.08995Z" fill="#C8202F"/>
<path d="M39.78 12.46C37.9378 10.5266 35.7223 8.98726 33.2677 7.93529C30.8131 6.88332 28.1705 6.3406 25.5 6.34002C15.5 6.34002 7.30998 13.61 7.30998 22.56C7.30998 31.51 15.47 38.86 25.5 38.86C30.1643 38.8312 34.6702 37.1641 38.23 34.15C39.3878 33.2181 40.8362 32.7226 42.3222 32.75C43.8082 32.7774 45.2373 33.326 46.36 34.3C44.5551 37.0674 42.1658 39.4056 39.36 41.15C35.2111 43.7834 30.394 45.1716 25.48 45.15C11.94 45.15 0.97998 35.03 0.97998 22.58C0.97998 10.13 11.98 0.0200195 25.48 0.0200195C35.1 0.0200195 43.87 5.27002 47.77 13.35C46.5456 14.1633 45.0741 14.5199 43.6132 14.3571C42.1524 14.1944 40.7954 13.5228 39.78 12.46Z" fill="#C8202F"/>
<path d="M261.94 42.6C261.349 42.5363 260.788 42.3027 260.327 41.9275C259.865 41.5523 259.522 41.0515 259.339 40.4856C259.156 39.9197 259.141 39.3129 259.295 38.7385C259.45 38.1641 259.767 37.6467 260.209 37.2487C260.651 36.8508 261.199 36.5893 261.786 36.496C262.374 36.4026 262.976 36.4813 263.519 36.7225C264.063 36.9638 264.525 37.3572 264.85 37.8554C265.175 38.3537 265.348 38.9353 265.35 39.53C265.301 40.3879 264.915 41.1916 264.276 41.7665C263.638 42.3414 262.798 42.641 261.94 42.6ZM261.94 37.18C261.607 37.1425 261.27 37.1756 260.951 37.2774C260.631 37.3791 260.337 37.5471 260.087 37.7703C259.838 37.9936 259.638 38.267 259.501 38.5729C259.364 38.8787 259.293 39.21 259.293 39.545C259.293 39.8801 259.364 40.2114 259.501 40.5172C259.638 40.823 259.838 41.0965 260.087 41.3198C260.337 41.543 260.631 41.711 260.951 41.8127C261.27 41.9144 261.607 41.9476 261.94 41.91C262.279 41.9595 262.625 41.9354 262.955 41.8392C263.284 41.7431 263.589 41.5772 263.848 41.3528C264.107 41.1284 264.316 40.8509 264.458 40.5389C264.601 40.227 264.675 39.888 264.675 39.545C264.675 39.202 264.601 38.8631 264.458 38.5511C264.316 38.2392 264.107 37.9616 263.848 37.7373C263.589 37.5129 263.284 37.347 262.955 37.2508C262.625 37.1547 262.279 37.1306 261.94 37.18ZM263.18 39.82C263.09 39.8804 262.993 39.9276 262.89 39.96L263.74 40.96L263.61 41.06C263.481 41.1715 263.313 41.2276 263.143 41.2164C262.972 41.2052 262.813 41.1275 262.7 41C262 40.14 261.92 40.06 261.92 40.06H261.13V39.81C261.153 39.6552 261.23 39.5134 261.347 39.4093C261.464 39.3052 261.613 39.2453 261.77 39.24H262.17C262.396 39.2566 262.621 39.208 262.82 39.1C262.94 39.1 262.96 38.96 262.96 38.83C262.96 38.7 262.96 38.47 262.17 38.47H261.05V40.58C261.05 40.6653 261.033 40.7498 260.999 40.8283C260.966 40.9067 260.917 40.9776 260.855 41.0365C260.793 41.0954 260.72 41.1411 260.64 41.171C260.56 41.2008 260.475 41.2141 260.39 41.21H260.24V38.21C260.254 38.0506 260.326 37.9019 260.442 37.7915C260.558 37.6812 260.71 37.6167 260.87 37.61H262.13C263.6 37.61 263.74 38.45 263.74 38.79C263.754 38.9972 263.709 39.2043 263.61 39.3867C263.511 39.5692 263.362 39.7195 263.18 39.82Z" fill="#C8202F"/>
<path d="M203.97 0.420061V38.8001C204.014 40.4827 204.717 42.0808 205.927 43.2513C207.136 44.4217 208.757 45.0711 210.44 45.0601V6.68006C210.396 4.99741 209.693 3.39929 208.483 2.22885C207.274 1.05842 205.653 0.409002 203.97 0.420061Z" fill="#C8202F"/>
</svg>
