<svg width="81" height="143" viewBox="0 0 81 143" fill="none" xmlns="http://www.w3.org/2000/svg">
<path d="M40.49 140.6C19.76 140.6 2.23999 133.24 2.23999 124.52V18.08C2.23999 9.37 19.76 2 40.49 2C61.22 2 78.74 9.36 78.74 18.08V124.52C78.74 133.23 61.22 140.6 40.49 140.6Z" fill="white" stroke="#404241" stroke-width="3" stroke-linecap="round" stroke-linejoin="round"/>
<path d="M2.23999 18.46C2.23999 27.85 19.36 35.46 40.49 35.46C61.62 35.46 78.74 27.85 78.74 18.46M2.23999 45.43C2.23999 54.82 19.36 62.43 40.49 62.43C61.62 62.43 78.74 54.82 78.74 45.43M2.23999 72.41C2.23999 81.8 19.36 89.41 40.49 89.41C61.62 89.41 78.74 81.8 78.74 72.41M2.23999 99.39C2.23999 108.78 19.36 116.39 40.49 116.39C61.62 116.39 78.74 108.78 78.74 99.39" stroke="#404241" stroke-width="3" stroke-linecap="round" stroke-linejoin="round"/>
</svg>
