<svg width="122" height="146" viewBox="0 0 122 146" fill="none" xmlns="http://www.w3.org/2000/svg">
<path d="M25.9539 122.645C25.2098 124.758 22.9014 125.864 20.7885 125.12C18.6757 124.376 17.5697 122.067 18.3138 119.954L29.0163 89.5638L36.6469 92.2511L25.9444 122.642L25.9539 122.645Z" fill="white" stroke="#404241" stroke-width="3" stroke-miterlimit="10"/>
<path d="M64.1354 136.091C63.3913 138.204 61.0829 139.31 58.9701 138.566C56.8573 137.822 55.7513 135.513 56.4953 133.401L67.1978 103.01L74.8285 105.697L64.126 136.088L64.1354 136.091Z" fill="white" stroke="#404241" stroke-width="3" stroke-miterlimit="10"/>
<path d="M95.2988 23.2453C96.0429 21.1325 98.3513 20.0265 100.464 20.7705C102.577 21.5146 103.683 23.823 102.939 25.9358L92.2364 56.3264L84.6058 53.6391L95.3083 23.2486L95.2988 23.2453Z" fill="white" stroke="#404241" stroke-width="3" stroke-miterlimit="10"/>
<path d="M57.1173 9.7991C57.8614 7.68629 60.1698 6.5803 62.2826 7.32436C64.3955 8.06842 65.5014 10.3769 64.7574 12.4897L54.0549 42.8802L46.4242 40.193L57.1267 9.80243L57.1173 9.7991Z" fill="white" stroke="#404241" stroke-width="3" stroke-miterlimit="10"/>
<path d="M103.508 60.2958L35.1339 36.2169C31.9875 35.1088 28.5386 36.7612 27.4305 39.9076L14.0541 77.8911C12.946 81.0375 14.5984 84.4864 17.7448 85.5944L86.1188 109.673C89.2652 110.781 92.7141 109.129 93.8222 105.983L107.199 67.9992C108.307 64.8528 106.654 61.4039 103.508 60.2958Z" fill="white" stroke="#404241" stroke-width="3" stroke-miterlimit="10"/>
<path d="M46.1681 62.1443C58.9514 54.475 73.5053 59.6004 78.662 73.5875" stroke="#404241" stroke-width="3" stroke-miterlimit="10" stroke-linecap="round"/>
<path d="M51.426 73.1348C57.8223 69.3019 65.0946 71.8629 67.6777 78.8581" stroke="#404241" stroke-width="3" stroke-miterlimit="10" stroke-linecap="round"/>
<path d="M55.9729 86.1439C54.8505 85.7486 54.2639 84.5242 54.6592 83.4018C55.0545 82.2793 56.2788 81.6927 57.4013 82.088C58.5237 82.4833 59.1103 83.7077 58.7151 84.8301C58.3198 85.9525 57.0954 86.5391 55.9729 86.1439Z" fill="#404241"/>
<path d="M83.4312 99.1215C85.0044 99.6755 86.7289 98.8493 87.2829 97.2761C87.8369 95.7029 87.0107 93.9785 85.4375 93.4245C83.8643 92.8705 82.1399 93.6966 81.5858 95.2698C81.0318 96.843 81.858 98.5675 83.4312 99.1215Z" fill="#88CAC9"/>
</svg>
