<svg width="143" height="124" viewBox="0 0 143 124" fill="none" xmlns="http://www.w3.org/2000/svg">
<path d="M134.637 60.3279C133.98 56.7583 133.772 53.1711 134.075 49.5664C135.785 29.0895 113.325 13.3166 78.5716 8.64026C43.818 3.96387 17.9761 13.3237 14.2124 33.5242C13.5609 37.082 12.403 40.4854 10.8381 43.6698M22.7752 69.6112C12.59 63.6881 6.72141 56.765 7.61881 50.0957C9.49012 36.1887 39.7625 28.8332 75.2036 33.6021C110.645 38.371 137.896 53.4669 136.025 67.3739C135.127 74.0431 127.638 79.1687 116.249 82.1889M64.1941 115.354C90.2236 118.857 113.971 101.682 117.3 76.9484C120.628 52.2145 26.4574 39.543 23.1293 64.277C19.8011 89.0109 38.1646 111.852 64.1941 115.354ZM71.4738 61.2537C58.8029 59.5487 47.221 67.9247 45.6008 79.965C43.9807 92.0053 52.9366 103.145 65.6076 104.85C78.2785 106.555 89.8604 98.1788 91.4805 86.1385C93.1007 74.0982 84.1447 62.9586 71.4738 61.2537Z" fill="#FFFEFE"/>
<path d="M134.637 60.3279C133.98 56.7583 133.772 53.1711 134.075 49.5664C135.785 29.0895 113.325 13.3166 78.5716 8.64026C43.818 3.96387 17.9761 13.3237 14.2124 33.5242C13.5609 37.082 12.403 40.4854 10.8381 43.6698M22.7752 69.6112C12.59 63.6881 6.72141 56.765 7.61881 50.0957C9.49012 36.1887 39.7625 28.8332 75.2036 33.6021C110.645 38.371 137.896 53.4669 136.025 67.3739C135.127 74.0431 127.638 79.1687 116.249 82.1889M64.1941 115.354C90.2236 118.857 113.971 101.682 117.3 76.9484C120.628 52.2145 26.4574 39.543 23.1293 64.277C19.8011 89.0109 38.1646 111.852 64.1941 115.354ZM71.4738 61.2537C58.8029 59.5487 47.221 67.9247 45.6008 79.965C43.9807 92.0053 52.9366 103.145 65.6076 104.85C78.2785 106.555 89.8604 98.1788 91.4805 86.1385C93.1006 74.0982 84.1447 62.9586 71.4738 61.2537Z" stroke="#404241" stroke-width="3" stroke-linecap="round" stroke-linejoin="round"/>
<path d="M82.4453 84.845C83.4306 77.5224 77.9677 70.8266 70.3509 69.8017" stroke="#67B346" stroke-width="3" stroke-linecap="round" stroke-linejoin="round"/>
<path d="M76.2079 26.2735C79.0436 26.655 81.6363 24.78 81.9989 22.0854C82.3615 19.3909 80.3566 16.8972 77.5209 16.5157C74.6852 16.1341 72.0926 18.0091 71.73 20.7037C71.3674 23.3982 73.3723 25.8919 76.2079 26.2735Z" fill="#67B346"/>
</svg>
