<svg width="111" height="78" viewBox="0 0 111 78" fill="none" xmlns="http://www.w3.org/2000/svg">
<path d="M19.9922 75.1558L19.8716 75.1826C17.1216 75.7933 14.2649 75.6577 11.6335 74.7891C9.00213 73.9206 6.69969 72.3676 4.9984 70.2921C3.29711 68.2166 2.26069 65.7156 2.01096 63.0715C1.76124 60.4275 2.31538 57.7558 3.59719 55.3592C5.12297 52.5034 7.60613 50.1973 10.6455 48.7997L10.8465 48.7551L10.7891 48.6488L10.7723 48.5731C8.97942 45.2873 8.18011 41.5744 8.45374 37.8296C8.72904 34.0924 10.0754 30.4667 12.3368 27.3523C14.6047 24.2285 17.7033 21.7301 21.3192 20.1171C24.927 18.506 28.9141 17.8428 32.8316 18.1954L32.9348 18.2043L33.0816 18.2193L33.0312 17.9923C32.6936 14.7247 33.5804 11.4234 35.5405 8.6617C37.4989 5.89248 40.4018 3.84244 43.743 2.85424C47.0842 1.86605 50.6597 2.00882 53.8392 3.25582C57.0187 4.50282 59.6081 6.77806 61.1638 9.67985L61.1823 9.76308L61.2528 9.89034L61.376 9.79946L61.448 9.74377C63.5112 8.20576 65.9416 7.18166 68.5064 6.76287C71.0712 6.34408 73.6884 6.5409 76.1177 7.33523C78.5486 8.13712 80.7092 9.50721 82.3952 11.3241C84.0813 13.141 85.2472 15.3513 85.7765 17.7347C85.8875 18.2341 85.9759 18.7464 86.0305 19.2583L86.0709 19.4399L86.2558 19.3988C91.3235 19.0037 96.3182 20.3319 100.36 23.1421C104.45 25.9813 107.282 30.1478 108.334 34.8844C109.391 39.7946 108.493 44.9482 105.804 49.3645C103.111 53.726 98.8333 57.0341 93.7879 58.6311L93.611 58.6703L93.6396 58.799L20.0244 75.1486L19.9922 75.1558Z" fill="white"/>
<path d="M3.59719 55.3592C2.31538 57.7558 1.76124 60.4275 2.01096 63.0715C2.26069 65.7156 3.29711 68.2166 4.9984 70.2921C6.69969 72.3676 9.00213 73.9206 11.6335 74.7891C14.2649 75.6577 17.1216 75.7933 19.8716 75.1826L19.9922 75.1558L20.0244 75.1486L93.6396 58.799L93.611 58.6703L93.7879 58.6311C98.8333 57.0341 103.111 53.726 105.804 49.3645C108.493 44.9482 109.391 39.7946 108.334 34.8844C107.282 30.1478 104.45 25.9813 100.36 23.1421M3.59719 55.3592L3.48389 55.305M3.59719 55.3592C5.12297 52.5034 7.60613 50.1973 10.6455 48.7997L10.8465 48.7551L10.7891 48.6488L10.7723 48.5731C8.97942 45.2873 8.18011 41.5744 8.45374 37.8296C8.72904 34.0924 10.0754 30.4667 12.3368 27.3523C14.6047 24.2285 17.7033 21.7301 21.3192 20.1171C24.927 18.506 28.9141 17.8428 32.8316 18.1954L32.9348 18.2043L33.0816 18.2193L33.0312 17.9923C32.6936 14.7247 33.5804 11.4234 35.5405 8.6617C37.4989 5.89248 40.4018 3.84244 43.743 2.85424C47.0842 1.86605 50.6597 2.00882 53.8392 3.25582C57.0187 4.50282 59.6081 6.77806 61.1638 9.67985L61.1823 9.76308L61.2528 9.89034L61.376 9.79946L61.448 9.74377C63.5112 8.20576 65.9416 7.18166 68.5064 6.76287C71.0712 6.34408 73.6884 6.5409 76.1177 7.33523C78.5486 8.13712 80.7092 9.50721 82.3952 11.3241C84.0813 13.141 85.2472 15.3513 85.7765 17.7347C85.8875 18.2341 85.9759 18.7464 86.0305 19.2583L86.0709 19.4399L86.2558 19.3988C91.3235 19.0037 96.3182 20.3319 100.36 23.1421M100.36 23.1421L100.431 23.0468" stroke="#080808" stroke-width="3"/>
</svg>
