<svg width="97" height="97" viewBox="0 0 97 97" fill="none" xmlns="http://www.w3.org/2000/svg">
<path d="M48.255 94.51C73.801 94.51 94.51 73.801 94.51 48.255C94.51 22.7091 73.801 2 48.255 2C22.7091 2 2 22.7091 2 48.255C2 73.801 22.7091 94.51 48.255 94.51Z" fill="white" stroke="#404241" stroke-width="3" stroke-linecap="round" stroke-linejoin="round"/>
<path d="M48.255 78.5766C65.0011 78.5766 78.5766 65.0012 78.5766 48.2551C78.5766 31.509 65.0011 17.9335 48.255 17.9335C31.5089 17.9335 17.9335 31.509 17.9335 48.2551C17.9335 65.0012 31.5089 78.5766 48.255 78.5766Z" fill="white" stroke="#404241" stroke-width="3" stroke-linecap="round" stroke-linejoin="round"/>
<path d="M78.5766 48.2551H17.9199M74.7881 60.3864H21.722M74.7881 36.1237H21.722M48.255 17.9335V78.5903M48.255 17.9335C38.8317 17.9335 31.2 31.5146 31.2 48.2551C31.2 64.9955 38.8591 78.5766 48.255 78.5766C57.651 78.5766 65.31 64.9955 65.31 48.2551C65.31 31.5146 57.6784 17.9335 48.255 17.9335Z" stroke="#404241" stroke-width="3" stroke-linecap="round" stroke-linejoin="round"/>
</svg>
